<svg xmlns="http://www.w3.org/2000/svg" viewBox="0 0 922.17 692.5"><defs><style>.cls-1{fill:#fff;}</style></defs><title>BE Logo</title><g id="Calque_4" data-name="Calque 4"><path class="cls-1" d="M308.5,798.5l-19.14-160a1555.68,1555.68,0,0,1-.43-365.54L308.5,106h0c-130,105.38-187,467.84,0,692.5Z" transform="translate(-26 -106)"/><path class="cls-1" d="M617.35,674.54s175.07,87.14,330.82,13.64h0c-71.49,99.57-234.86,148.65-330.82-13.64Z" transform="translate(-26 -106)"/><path class="cls-1" d="M616.35,287.13s164.52-93.74,322.56-48.24h0C861.28,161.81,697.68,138,616.35,287.13Z" transform="translate(-26 -106)"/></g><g id="Calque_5" data-name="Calque 5"><path class="cls-1" d="M605,474.65l32.43,11.07c56.23,19.21,115.89,17.23,171.19-5.66L832,470.38h0c-69.2-36.16-147.44-36.5-216.85-.94Z" transform="translate(-26 -106)"/></g><g id="Calque_6" data-name="Calque 6"><path class="cls-1" d="M704.5,760.11,679.83,676c-42-143.09-40.6-301.69,3.84-443.51l14.83-31.72c-179,114.76-180.79,442.52-.91,555Z" transform="translate(-26 -106)"/></g><g id="Calque_3" data-name="Calque 3"><path class="cls-1" d="M26,230.5s305.09-74.74,427.57,102.57c8.21,11.9,6.13,29.71-4.47,38.47a232.16,232.16,0,0,1-56.6,28c-35.37,11.77-81.13,17.68-102.92,18.55l-16.23.45c0,18-.84,33-.84,33,4.44.39,159.46-2.45,163.3-5.17l80-56.65c9.65-6.83,13.48-21.32,8.83-33.55C399.59,27.29,26,230.5,26,230.5" transform="translate(-26 -106)"/><path class="cls-1" d="M48.47,678.43s288.4,74.74,404.18-102.58c7.76-11.89,5.8-29.7-4.22-38.46h0a189.38,189.38,0,0,0-157.75-49.27l-9.18,1.38v-37c4.2-.39,150.68-1.71,154.3,1l75.71,65.74c9.12,6.83,12.75,21.32,8.35,33.56C401.63,881.63,48.47,678.43,48.47,678.43" transform="translate(-26 -106)"/></g></svg>